<svg width="24" height="25" viewBox="0 0 24 25" fill="none" xmlns="http://www.w3.org/2000/svg">
<path d="M10.9921 15.3808C11.9973 14.7116 12.7605 13.7367 13.1687 12.6002C13.577 11.4637 13.6087 10.226 13.2591 9.07018C12.9095 7.91431 12.1973 6.90162 11.2276 6.18186C10.258 5.4621 9.0825 5.07349 7.87492 5.07349C6.66735 5.07349 5.49184 5.4621 4.52221 6.18186C3.55258 6.90162 2.84032 7.91431 2.49076 9.07018C2.1412 10.226 2.17288 11.4637 2.58114 12.6002C2.9894 13.7367 3.75255 14.7116 4.75774 15.3808C2.93945 16.0509 1.38659 17.291 0.330862 18.9161C0.275377 18.9985 0.236837 19.0912 0.217482 19.1887C0.198127 19.2862 0.198344 19.3866 0.218119 19.484C0.237895 19.5814 0.276835 19.6739 0.332676 19.7561C0.388516 19.8383 0.460144 19.9086 0.543396 19.9629C0.626647 20.0172 0.719861 20.0545 0.81762 20.0724C0.915378 20.0904 1.01573 20.0887 1.11285 20.0676C1.20996 20.0464 1.3019 20.0061 1.38332 19.9491C1.46473 19.8921 1.53401 19.8195 1.58711 19.7355C2.2681 18.6881 3.19995 17.8274 4.29802 17.2316C5.3961 16.6357 6.62562 16.3237 7.87492 16.3237C9.12423 16.3237 10.3538 16.6357 11.4518 17.2316C12.5499 17.8274 13.4817 18.6881 14.1627 19.7355C14.2727 19.8989 14.4427 20.0126 14.6358 20.0518C14.8289 20.091 15.0297 20.0526 15.1947 19.945C15.3598 19.8373 15.4758 19.669 15.5178 19.4765C15.5598 19.284 15.5243 19.0827 15.419 18.9161C14.3633 17.291 12.8104 16.0509 10.9921 15.3808ZM3.74992 10.7008C3.74992 9.88492 3.99185 9.08739 4.44511 8.40904C4.89837 7.73069 5.54261 7.20198 6.29636 6.88977C7.0501 6.57755 7.8795 6.49587 8.67967 6.65503C9.47984 6.81419 10.2148 7.20706 10.7917 7.78395C11.3686 8.36084 11.7615 9.09585 11.9207 9.89602C12.0798 10.6962 11.9981 11.5256 11.6859 12.2793C11.3737 13.0331 10.845 13.6773 10.1667 14.1306C9.4883 14.5838 8.69077 14.8258 7.87492 14.8258C6.78129 14.8245 5.7328 14.3895 4.95948 13.6162C4.18616 12.8429 3.75117 11.7944 3.74992 10.7008ZM23.4506 19.9539C23.284 20.0625 23.081 20.1005 22.8864 20.0596C22.6918 20.0186 22.5214 19.902 22.4127 19.7355C21.7326 18.6874 20.8008 17.8264 19.7025 17.2308C18.6042 16.6352 17.3743 16.3241 16.1249 16.3258C15.926 16.3258 15.7352 16.2468 15.5946 16.1061C15.4539 15.9654 15.3749 15.7747 15.3749 15.5758C15.3749 15.3769 15.4539 15.1861 15.5946 15.0454C15.7352 14.9048 15.926 14.8258 16.1249 14.8258C16.7324 14.8252 17.3322 14.6905 17.8816 14.4312C18.431 14.1719 18.9163 13.7945 19.3029 13.3259C19.6895 12.8574 19.9678 12.3092 20.118 11.7206C20.2682 11.1319 20.2865 10.5174 20.1716 9.92091C20.0568 9.32439 19.8116 8.7606 19.4536 8.26983C19.0956 7.77905 18.6337 7.3734 18.1007 7.08186C17.5678 6.79032 16.977 6.62009 16.3707 6.58333C15.7643 6.54657 15.1573 6.64419 14.5931 6.86921C14.501 6.90898 14.402 6.9299 14.3018 6.93075C14.2016 6.9316 14.1022 6.91235 14.0095 6.87414C13.9169 6.83593 13.8328 6.77953 13.7623 6.70828C13.6918 6.63704 13.6363 6.55238 13.5991 6.45932C13.5619 6.36626 13.5437 6.26668 13.5456 6.16647C13.5475 6.06626 13.5695 5.96745 13.6102 5.87588C13.651 5.78431 13.7097 5.70183 13.7828 5.63332C13.856 5.56482 13.9421 5.51167 14.0362 5.47702C15.3275 4.962 16.7639 4.94347 18.0681 5.42499C19.3723 5.90652 20.452 6.85398 21.0989 8.0846C21.7458 9.31522 21.914 10.7418 21.5711 12.0891C21.2283 13.4365 20.3986 14.6091 19.2421 15.3808C21.0604 16.0509 22.6133 17.291 23.669 18.9161C23.7776 19.0827 23.8156 19.2856 23.7747 19.4802C23.7337 19.6748 23.6171 19.8452 23.4506 19.9539Z" fill="#222222"/>
</svg>
