<svg width="18" height="21" viewBox="0 0 18 21" fill="none" xmlns="http://www.w3.org/2000/svg">
<path d="M15.75 0.825745H2.25C1.85218 0.825745 1.47064 0.98378 1.18934 1.26508C0.908035 1.54639 0.75 1.92792 0.75 2.32574V18.8257C0.75 19.2236 0.908035 19.6051 1.18934 19.8864C1.47064 20.1677 1.85218 20.3257 2.25 20.3257H15.75C16.1478 20.3257 16.5294 20.1677 16.8107 19.8864C17.092 19.6051 17.25 19.2236 17.25 18.8257V2.32574C17.25 1.92792 17.092 1.54639 16.8107 1.26508C16.5294 0.98378 16.1478 0.825745 15.75 0.825745ZM5.25 17.3257C5.0275 17.3257 4.80999 17.2598 4.62498 17.1361C4.43998 17.0125 4.29578 16.8368 4.21064 16.6313C4.12549 16.4257 4.10321 16.1995 4.14662 15.9813C4.19002 15.763 4.29717 15.5626 4.4545 15.4053C4.61184 15.2479 4.81229 15.1408 5.03052 15.0974C5.24875 15.054 5.47495 15.0762 5.68052 15.1614C5.88609 15.2465 6.06179 15.3907 6.1854 15.5757C6.30902 15.7607 6.375 15.9782 6.375 16.2007C6.375 16.4991 6.25647 16.7853 6.0455 16.9962C5.83452 17.2072 5.54837 17.3257 5.25 17.3257ZM5.25 13.5757C5.0275 13.5757 4.80999 13.5098 4.62498 13.3861C4.43998 13.2625 4.29578 13.0868 4.21064 12.8813C4.12549 12.6757 4.10321 12.4495 4.14662 12.2313C4.19002 12.013 4.29717 11.8126 4.4545 11.6553C4.61184 11.4979 4.81229 11.3908 5.03052 11.3474C5.24875 11.304 5.47495 11.3262 5.68052 11.4114C5.88609 11.4965 6.06179 11.6407 6.1854 11.8257C6.30902 12.0107 6.375 12.2282 6.375 12.4507C6.375 12.7491 6.25647 13.0353 6.0455 13.2462C5.83452 13.4572 5.54837 13.5757 5.25 13.5757ZM9 17.3257C8.7775 17.3257 8.55999 17.2598 8.37498 17.1361C8.18998 17.0125 8.04578 16.8368 7.96064 16.6313C7.87549 16.4257 7.85321 16.1995 7.89662 15.9813C7.94002 15.763 8.04717 15.5626 8.2045 15.4053C8.36184 15.2479 8.56229 15.1408 8.78052 15.0974C8.99875 15.054 9.22495 15.0762 9.43052 15.1614C9.63608 15.2465 9.81179 15.3907 9.9354 15.5757C10.059 15.7607 10.125 15.9782 10.125 16.2007C10.125 16.4991 10.0065 16.7853 9.79549 16.9962C9.58452 17.2072 9.29837 17.3257 9 17.3257ZM9 13.5757C8.7775 13.5757 8.55999 13.5098 8.37498 13.3861C8.18998 13.2625 8.04578 13.0868 7.96064 12.8813C7.87549 12.6757 7.85321 12.4495 7.89662 12.2313C7.94002 12.013 8.04717 11.8126 8.2045 11.6553C8.36184 11.4979 8.56229 11.3908 8.78052 11.3474C8.99875 11.304 9.22495 11.3262 9.43052 11.4114C9.63608 11.4965 9.81179 11.6407 9.9354 11.8257C10.059 12.0107 10.125 12.2282 10.125 12.4507C10.125 12.7491 10.0065 13.0353 9.79549 13.2462C9.58452 13.4572 9.29837 13.5757 9 13.5757ZM12.75 17.3257C12.5275 17.3257 12.31 17.2598 12.125 17.1361C11.94 17.0125 11.7958 16.8368 11.7106 16.6313C11.6255 16.4257 11.6032 16.1995 11.6466 15.9813C11.69 15.763 11.7972 15.5626 11.9545 15.4053C12.1118 15.2479 12.3123 15.1408 12.5305 15.0974C12.7488 15.054 12.975 15.0762 13.1805 15.1614C13.3861 15.2465 13.5618 15.3907 13.6854 15.5757C13.809 15.7607 13.875 15.9782 13.875 16.2007C13.875 16.4991 13.7565 16.7853 13.5455 16.9962C13.3345 17.2072 13.0484 17.3257 12.75 17.3257ZM12.75 13.5757C12.5275 13.5757 12.31 13.5098 12.125 13.3861C11.94 13.2625 11.7958 13.0868 11.7106 12.8813C11.6255 12.6757 11.6032 12.4495 11.6466 12.2313C11.69 12.013 11.7972 11.8126 11.9545 11.6553C12.1118 11.4979 12.3123 11.3908 12.5305 11.3474C12.7488 11.304 12.975 11.3262 13.1805 11.4114C13.3861 11.4965 13.5618 11.6407 13.6854 11.8257C13.809 12.0107 13.875 12.2282 13.875 12.4507C13.875 12.7491 13.7565 13.0353 13.5455 13.2462C13.3345 13.4572 13.0484 13.5757 12.75 13.5757ZM14.25 8.32574C14.25 8.52466 14.171 8.71542 14.0303 8.85607C13.8897 8.99673 13.6989 9.07574 13.5 9.07574H4.5C4.30109 9.07574 4.11032 8.99673 3.96967 8.85607C3.82902 8.71542 3.75 8.52466 3.75 8.32574V4.57574C3.75 4.37683 3.82902 4.18607 3.96967 4.04541C4.11032 3.90476 4.30109 3.82574 4.5 3.82574H13.5C13.6989 3.82574 13.8897 3.90476 14.0303 4.04541C14.171 4.18607 14.25 4.37683 14.25 4.57574V8.32574Z" fill="black"/>
</svg>
