<svg width="24" height="25" viewBox="0 0 24 25" fill="none" xmlns="http://www.w3.org/2000/svg">
<path d="M20.7927 17.0701C20.2724 16.1738 19.4989 13.6379 19.4989 10.3257C19.4989 8.33656 18.7087 6.42891 17.3022 5.02238C15.8957 3.61586 13.988 2.82568 11.9989 2.82568C10.0098 2.82568 8.10214 3.61586 6.69561 5.02238C5.28909 6.42891 4.49891 8.33656 4.49891 10.3257C4.49891 13.6388 3.72454 16.1738 3.20423 17.0701C3.07135 17.2979 3.00091 17.5568 3.00001 17.8205C2.9991 18.0843 3.06776 18.3436 3.19907 18.5724C3.33037 18.8012 3.51968 18.9912 3.74789 19.1235C3.9761 19.2558 4.23515 19.3255 4.49891 19.3257H8.32485C8.49789 20.1724 8.95806 20.9334 9.62754 21.4799C10.297 22.0263 11.1347 22.3248 11.9989 22.3248C12.8631 22.3248 13.7008 22.0263 14.3703 21.4799C15.0398 20.9334 15.4999 20.1724 15.673 19.3257H19.4989C19.7626 19.3253 20.0215 19.2555 20.2496 19.1231C20.4777 18.9908 20.6669 18.8007 20.7981 18.572C20.9292 18.3433 20.9978 18.084 20.9969 17.8203C20.9959 17.5566 20.9255 17.2978 20.7927 17.0701ZM11.9989 20.8257C11.5337 20.8255 11.0801 20.6812 10.7003 20.4126C10.3205 20.144 10.0333 19.7642 9.87829 19.3257H14.1195C13.9645 19.7642 13.6773 20.144 13.2975 20.4126C12.9178 20.6812 12.4641 20.8255 11.9989 20.8257Z" fill="black"/>
</svg>
