<svg width="91" height="91" viewBox="0 0 91 91" fill="none" xmlns="http://www.w3.org/2000/svg">
<rect width="91" height="91" rx="45.5" fill="#D6FFF3"/>
<rect x="13" y="13.5" width="64" height="64" rx="32" fill="#00CC8F"/>
<path d="M57 35.5H33C32.7348 35.5 32.4804 35.6054 32.2929 35.7929C32.1054 35.9804 32 36.2348 32 36.5V53.5C32 54.0304 32.2107 54.5391 32.5858 54.9142C32.9609 55.2893 33.4696 55.5 34 55.5H56C56.5304 55.5 57.0391 55.2893 57.4142 54.9142C57.7893 54.5391 58 54.0304 58 53.5V36.5C58 36.2348 57.8946 35.9804 57.7071 35.7929C57.5196 35.6054 57.2652 35.5 57 35.5ZM41.3387 45.5L34 52.2262V38.7738L41.3387 45.5ZM42.8188 46.8563L44.3188 48.2375C44.5032 48.4069 44.7446 48.5008 44.995 48.5008C45.2454 48.5008 45.4868 48.4069 45.6712 48.2375L47.1712 46.8563L54.4212 53.5H35.5712L42.8188 46.8563ZM48.6612 45.5L56 38.7725V52.2275L48.6612 45.5Z" fill="white"/>
</svg>
