<svg width="24" height="25" viewBox="0 0 24 25" fill="none" xmlns="http://www.w3.org/2000/svg">
<path d="M20.7946 17.0702C20.2743 16.1739 19.5009 13.638 19.5009 10.3258C19.5009 8.33668 18.7107 6.42903 17.3042 5.0225C15.8976 3.61598 13.99 2.82581 12.0009 2.82581C10.0117 2.82581 8.10409 3.61598 6.69757 5.0225C5.29104 6.42903 4.50087 8.33668 4.50087 10.3258C4.50087 13.6389 3.72649 16.1739 3.20618 17.0702C3.07331 17.298 3.00287 17.5569 3.00196 17.8207C3.00106 18.0844 3.06972 18.3438 3.20102 18.5725C3.33233 18.8013 3.52163 18.9914 3.74984 19.1236C3.97805 19.2559 4.2371 19.3256 4.50087 19.3258H8.3268C8.49984 20.1725 8.96001 20.9335 9.62949 21.48C10.299 22.0265 11.1367 22.325 12.0009 22.325C12.8651 22.325 13.7028 22.0265 14.3722 21.48C15.0417 20.9335 15.5019 20.1725 15.6749 19.3258H19.5009C19.7646 19.3255 20.0235 19.2556 20.2516 19.1233C20.4796 18.9909 20.6688 18.8008 20.8 18.5721C20.9312 18.3434 20.9998 18.0841 20.9988 17.8204C20.9979 17.5567 20.9274 17.298 20.7946 17.0702ZM12.0009 20.8258C11.5357 20.8257 11.082 20.6813 10.7022 20.4127C10.3225 20.1441 10.0353 19.7644 9.88024 19.3258H14.1215C13.9664 19.7644 13.6793 20.1441 13.2995 20.4127C12.9197 20.6813 12.466 20.8257 12.0009 20.8258ZM4.50087 17.8258C5.22274 16.5846 6.00087 13.7083 6.00087 10.3258C6.00087 8.73451 6.63301 7.20838 7.75823 6.08317C8.88344 4.95795 10.4096 4.32581 12.0009 4.32581C13.5922 4.32581 15.1183 4.95795 16.2435 6.08317C17.3687 7.20838 18.0009 8.73451 18.0009 10.3258C18.0009 13.7055 18.7771 16.5817 19.5009 17.8258H4.50087Z" fill="#222222"/>
</svg>
