<svg width="18" height="21" viewBox="0 0 18 21" fill="none" xmlns="http://www.w3.org/2000/svg">
<path d="M4.5 9.82581H13.5C13.6989 9.82581 13.8897 9.74679 14.0303 9.60614C14.171 9.46548 14.25 9.27472 14.25 9.07581V4.57581C14.25 4.37689 14.171 4.18613 14.0303 4.04548C13.8897 3.90482 13.6989 3.82581 13.5 3.82581H4.5C4.30109 3.82581 4.11032 3.90482 3.96967 4.04548C3.82902 4.18613 3.75 4.37689 3.75 4.57581V9.07581C3.75 9.27472 3.82902 9.46548 3.96967 9.60614C4.11032 9.74679 4.30109 9.82581 4.5 9.82581ZM5.25 5.32581H12.75V8.32581H5.25V5.32581ZM15.75 0.825806H2.25C1.85218 0.825806 1.47064 0.983841 1.18934 1.26515C0.908035 1.54645 0.75 1.92798 0.75 2.32581V18.8258C0.75 19.2236 0.908035 19.6052 1.18934 19.8865C1.47064 20.1678 1.85218 20.3258 2.25 20.3258H15.75C16.1478 20.3258 16.5294 20.1678 16.8107 19.8865C17.092 19.6052 17.25 19.2236 17.25 18.8258V2.32581C17.25 1.92798 17.092 1.54645 16.8107 1.26515C16.5294 0.983841 16.1478 0.825806 15.75 0.825806ZM15.75 18.8258H2.25V2.32581H15.75V18.8258ZM6.375 12.4508C6.375 12.6733 6.30902 12.8908 6.1854 13.0758C6.06179 13.2608 5.88609 13.405 5.68052 13.4902C5.47495 13.5753 5.24875 13.5976 5.03052 13.5542C4.81229 13.5108 4.61184 13.4036 4.4545 13.2463C4.29717 13.089 4.19002 12.8885 4.14662 12.6703C4.10321 12.4521 4.12549 12.2259 4.21064 12.0203C4.29578 11.8147 4.43998 11.639 4.62498 11.5154C4.80999 11.3918 5.0275 11.3258 5.25 11.3258C5.54837 11.3258 5.83452 11.4443 6.0455 11.6553C6.25647 11.8663 6.375 12.1524 6.375 12.4508ZM10.125 12.4508C10.125 12.6733 10.059 12.8908 9.9354 13.0758C9.81179 13.2608 9.63608 13.405 9.43052 13.4902C9.22495 13.5753 8.99875 13.5976 8.78052 13.5542C8.56229 13.5108 8.36184 13.4036 8.2045 13.2463C8.04717 13.089 7.94002 12.8885 7.89662 12.6703C7.85321 12.4521 7.87549 12.2259 7.96064 12.0203C8.04578 11.8147 8.18998 11.639 8.37498 11.5154C8.55999 11.3918 8.7775 11.3258 9 11.3258C9.29837 11.3258 9.58452 11.4443 9.79549 11.6553C10.0065 11.8663 10.125 12.1524 10.125 12.4508ZM13.875 12.4508C13.875 12.6733 13.809 12.8908 13.6854 13.0758C13.5618 13.2608 13.3861 13.405 13.1805 13.4902C12.975 13.5753 12.7488 13.5976 12.5305 13.5542C12.3123 13.5108 12.1118 13.4036 11.9545 13.2463C11.7972 13.089 11.69 12.8885 11.6466 12.6703C11.6032 12.4521 11.6255 12.2259 11.7106 12.0203C11.7958 11.8147 11.94 11.639 12.125 11.5154C12.31 11.3918 12.5275 11.3258 12.75 11.3258C13.0484 11.3258 13.3345 11.4443 13.5455 11.6553C13.7565 11.8663 13.875 12.1524 13.875 12.4508ZM6.375 16.2008C6.375 16.4233 6.30902 16.6408 6.1854 16.8258C6.06179 17.0108 5.88609 17.155 5.68052 17.2402C5.47495 17.3253 5.24875 17.3476 5.03052 17.3042C4.81229 17.2608 4.61184 17.1536 4.4545 16.9963C4.29717 16.839 4.19002 16.6385 4.14662 16.4203C4.10321 16.2021 4.12549 15.9759 4.21064 15.7703C4.29578 15.5647 4.43998 15.389 4.62498 15.2654C4.80999 15.1418 5.0275 15.0758 5.25 15.0758C5.54837 15.0758 5.83452 15.1943 6.0455 15.4053C6.25647 15.6163 6.375 15.9024 6.375 16.2008ZM10.125 16.2008C10.125 16.4233 10.059 16.6408 9.9354 16.8258C9.81179 17.0108 9.63608 17.155 9.43052 17.2402C9.22495 17.3253 8.99875 17.3476 8.78052 17.3042C8.56229 17.2608 8.36184 17.1536 8.2045 16.9963C8.04717 16.839 7.94002 16.6385 7.89662 16.4203C7.85321 16.2021 7.87549 15.9759 7.96064 15.7703C8.04578 15.5647 8.18998 15.389 8.37498 15.2654C8.55999 15.1418 8.7775 15.0758 9 15.0758C9.29837 15.0758 9.58452 15.1943 9.79549 15.4053C10.0065 15.6163 10.125 15.9024 10.125 16.2008ZM13.875 16.2008C13.875 16.4233 13.809 16.6408 13.6854 16.8258C13.5618 17.0108 13.3861 17.155 13.1805 17.2402C12.975 17.3253 12.7488 17.3476 12.5305 17.3042C12.3123 17.2608 12.1118 17.1536 11.9545 16.9963C11.7972 16.839 11.69 16.6385 11.6466 16.4203C11.6032 16.2021 11.6255 15.9759 11.7106 15.7703C11.7958 15.5647 11.94 15.389 12.125 15.2654C12.31 15.1418 12.5275 15.0758 12.75 15.0758C13.0484 15.0758 13.3345 15.1943 13.5455 15.4053C13.7565 15.6163 13.875 15.9024 13.875 16.2008Z" fill="#222222"/>
</svg>
