<svg width="24" height="16" viewBox="0 0 24 16" fill="none" xmlns="http://www.w3.org/2000/svg">
<path d="M15.4208 13.9158C15.4946 14.029 15.5365 14.16 15.542 14.295C15.5475 14.43 15.5164 14.5639 15.4521 14.6827C15.3878 14.8015 15.2925 14.9007 15.1765 14.9699C15.0604 15.039 14.9278 15.0755 14.7927 15.0755H0.960846C0.825748 15.0755 0.693163 15.039 0.577099 14.9699C0.461035 14.9007 0.365801 14.8015 0.301459 14.6827C0.237118 14.5639 0.206057 14.43 0.21156 14.295C0.217063 14.16 0.258924 14.029 0.332721 13.9158C1.38845 12.2908 2.94131 11.0507 4.7596 10.3805C3.75441 9.71133 2.99126 8.73641 2.583 7.59995C2.17474 6.46348 2.14305 5.2258 2.49262 4.06993C2.84218 2.91406 3.55444 1.90137 4.52407 1.18161C5.4937 0.461855 6.66921 0.0732422 7.87678 0.0732422C9.08435 0.0732422 10.2599 0.461855 11.2295 1.18161C12.1991 1.90137 12.9114 2.91406 13.2609 4.06993C13.6105 5.2258 13.5788 6.46348 13.1706 7.59995C12.7623 8.73641 11.9992 9.71133 10.994 10.3805C12.8123 11.0507 14.3651 12.2908 15.4208 13.9158ZM23.6624 13.9018C22.6064 12.2836 21.057 11.0488 19.244 10.3805C20.4306 9.58117 21.2681 8.35965 21.5859 6.9646C21.9037 5.56955 21.6779 4.10582 20.9545 2.87136C20.2312 1.6369 19.0646 0.724498 17.6922 0.319865C16.3198 -0.0847691 14.8448 0.0487832 13.5674 0.693337C13.5186 0.718557 13.4759 0.754208 13.4423 0.797764C13.4088 0.841321 13.3852 0.891719 13.3733 0.945388C13.3614 0.999057 13.3615 1.05469 13.3735 1.10833C13.3855 1.16198 13.4091 1.21234 13.4427 1.25584C14.3926 2.44066 14.9381 3.8985 14.9993 5.41582C15.0605 6.93314 14.6343 8.4302 13.783 9.68771C13.728 9.76989 13.7077 9.87048 13.7265 9.96758C13.7453 10.0647 13.8016 10.1504 13.8833 10.2061C14.9932 10.9808 15.9434 11.9621 16.6818 13.0965C16.9796 13.5525 17.1012 14.1014 17.024 14.6405C17.0153 14.6942 17.0183 14.749 17.033 14.8014C17.0476 14.8537 17.0734 14.9022 17.1086 14.9436C17.1438 14.985 17.1876 15.0182 17.2369 15.041C17.2863 15.0638 17.34 15.0755 17.3943 15.0755H23.0474C23.2126 15.0756 23.3731 15.0211 23.5041 14.9206C23.6352 14.8201 23.7294 14.6791 23.7721 14.5196C23.7982 14.4147 23.8019 14.3055 23.783 14.199C23.7641 14.0926 23.723 13.9913 23.6624 13.9018Z" fill="black"/>
</svg>
