<svg width="18" height="17" viewBox="0 0 18 17" fill="none" xmlns="http://www.w3.org/2000/svg">
<path d="M17.0312 13.6065L14.0312 16.6065C13.8905 16.7472 13.6996 16.8263 13.5006 16.8263C13.3016 16.8263 13.1107 16.7472 12.97 16.6065C12.8292 16.4658 12.7502 16.2749 12.7502 16.0759C12.7502 15.8768 12.8292 15.686 12.97 15.5452L14.6903 13.8259H1.50059C1.30168 13.8259 1.11091 13.7468 0.97026 13.6062C0.829608 13.4655 0.75059 13.2748 0.75059 13.0759C0.75059 12.8769 0.829608 12.6862 0.97026 12.5455C1.11091 12.4049 1.30168 12.3259 1.50059 12.3259H14.6903L12.97 10.6065C12.8292 10.4658 12.7502 10.2749 12.7502 10.0759C12.7502 9.87683 12.8292 9.68596 12.97 9.54523C13.1107 9.4045 13.3016 9.32544 13.5006 9.32544C13.6996 9.32544 13.8905 9.4045 14.0312 9.54523L17.0312 12.5452C17.1009 12.6149 17.1563 12.6976 17.194 12.7887C17.2318 12.8797 17.2512 12.9773 17.2512 13.0759C17.2512 13.1744 17.2318 13.272 17.194 13.3631C17.1563 13.4541 17.1009 13.5368 17.0312 13.6065ZM3.96996 7.60648C4.1107 7.74721 4.30157 7.82627 4.50059 7.82627C4.69961 7.82627 4.89048 7.74721 5.03122 7.60648C5.17195 7.46575 5.25101 7.27488 5.25101 7.07586C5.25101 6.87683 5.17195 6.68596 5.03122 6.54523L3.3109 4.82586H16.5006C16.6995 4.82586 16.8903 4.74684 17.0309 4.60619C17.1716 4.46553 17.2506 4.27477 17.2506 4.07586C17.2506 3.87694 17.1716 3.68618 17.0309 3.54553C16.8903 3.40487 16.6995 3.32586 16.5006 3.32586H3.3109L5.03122 1.60648C5.17195 1.46575 5.25101 1.27488 5.25101 1.07586C5.25101 0.876833 5.17195 0.685962 5.03121 0.545231C4.89048 0.404501 4.69961 0.325439 4.50059 0.325439C4.30157 0.325439 4.1107 0.404501 3.96996 0.545231L0.969965 3.54523C0.900233 3.61489 0.844914 3.6976 0.80717 3.78865C0.769427 3.8797 0.75 3.97729 0.75 4.07586C0.75 4.17442 0.769427 4.27201 0.80717 4.36306C0.844914 4.45411 0.900233 4.53683 0.969965 4.60648L3.96996 7.60648Z" fill="#222222"/>
</svg>
