<svg width="24" height="25" viewBox="0 0 24 25" fill="none" xmlns="http://www.w3.org/2000/svg">
<path d="M12 2.82581C10.0716 2.82581 8.18657 3.39763 6.58319 4.46898C4.97982 5.54032 3.73013 7.06306 2.99218 8.84464C2.25422 10.6262 2.06114 12.5866 2.43735 14.4779C2.81355 16.3693 3.74215 18.1065 5.10571 19.4701C6.46928 20.8337 8.20656 21.7623 10.0979 22.1385C11.9892 22.5147 13.9496 22.3216 15.7312 21.5836C17.5127 20.8457 19.0355 19.596 20.1068 17.9926C21.1782 16.3892 21.75 14.5042 21.75 12.5758C21.7473 9.99078 20.7192 7.51242 18.8913 5.68453C17.0634 3.85664 14.585 2.82854 12 2.82581ZM20.25 12.5758C20.2508 13.6342 20.0471 14.6828 19.65 15.6639L15.4594 13.0867C15.2812 12.9768 15.0819 12.9056 14.8744 12.8777L12.735 12.5889C12.4402 12.5505 12.1406 12.5999 11.8738 12.731C11.607 12.8621 11.3848 13.069 11.235 13.3258H10.4175L10.0613 12.5889C9.96277 12.3837 9.81863 12.2038 9.63988 12.0629C9.46114 11.9221 9.25252 11.8239 9.03 11.7761L8.28 11.6139L9.01313 10.3258H10.5797C10.8332 10.3253 11.0825 10.2608 11.3044 10.1383L12.4528 9.50456C12.5537 9.44831 12.648 9.38102 12.7341 9.30393L15.2569 7.02206C15.5098 6.79538 15.6779 6.48926 15.7335 6.15419C15.7891 5.81912 15.7287 5.47511 15.5625 5.17893L15.5288 5.11799C16.9404 5.78736 18.1333 6.84336 18.969 8.16342C19.8047 9.48348 20.2489 11.0135 20.25 12.5758ZM3.75 12.5758C3.74875 11.3496 4.02233 10.1386 4.55063 9.03206L5.61375 11.8699C5.70235 12.1048 5.84852 12.3138 6.03885 12.4776C6.22918 12.6414 6.45759 12.7548 6.70313 12.8074L8.71219 13.2396L9.06938 13.9821C9.19334 14.2346 9.38545 14.4474 9.62401 14.5965C9.86256 14.7456 10.1381 14.825 10.4194 14.8258H10.5581L9.88032 16.3474C9.76089 16.6153 9.72264 16.9123 9.77029 17.2018C9.81795 17.4912 9.94942 17.7603 10.1484 17.9758L10.1616 17.9889L12 19.8827L11.8181 20.8202C9.66359 20.77 7.61396 19.8799 6.10662 18.3396C4.59927 16.7993 3.75358 14.7309 3.75 12.5758Z" fill="black"/>
</svg>
