<svg width="24" height="25" viewBox="0 0 24 25" fill="none" xmlns="http://www.w3.org/2000/svg">
<path d="M16.6875 4.32581C14.7516 4.32581 13.0566 5.15831 12 6.56549C10.9434 5.15831 9.24844 4.32581 7.3125 4.32581C5.77146 4.32754 4.29404 4.94049 3.20436 6.03017C2.11468 7.11984 1.50174 8.59727 1.5 10.1383C1.5 16.7008 11.2303 22.0127 11.6447 22.2321C11.7539 22.2908 11.876 22.3216 12 22.3216C12.124 22.3216 12.2461 22.2908 12.3553 22.2321C12.7697 22.0127 22.5 16.7008 22.5 10.1383C22.4983 8.59727 21.8853 7.11984 20.7956 6.03017C19.706 4.94049 18.2285 4.32754 16.6875 4.32581ZM12 20.7133C10.2881 19.7158 3 15.1717 3 10.1383C3.00149 8.99502 3.45632 7.89898 4.26475 7.09055C5.07317 6.28212 6.16921 5.82729 7.3125 5.82581C9.13594 5.82581 10.6669 6.79706 11.3062 8.35706C11.3628 8.49461 11.4589 8.61227 11.5824 8.69507C11.7059 8.77787 11.8513 8.82208 12 8.82208C12.1487 8.82208 12.2941 8.77787 12.4176 8.69507C12.5411 8.61227 12.6372 8.49461 12.6937 8.35706C13.3331 6.79424 14.8641 5.82581 16.6875 5.82581C17.8308 5.82729 18.9268 6.28212 19.7353 7.09055C20.5437 7.89898 20.9985 8.99502 21 10.1383C21 15.1642 13.71 19.7149 12 20.7133Z" fill="#222222"/>
</svg>
