<svg width="24" height="25" viewBox="0 0 24 25" fill="none" xmlns="http://www.w3.org/2000/svg">
<path d="M22.5 10.1382C22.5 16.7007 12.7697 22.0126 12.3553 22.2319C12.2461 22.2907 12.124 22.3214 12 22.3214C11.876 22.3214 11.7539 22.2907 11.6447 22.2319C11.2303 22.0126 1.5 16.7007 1.5 10.1382C1.50174 8.59715 2.11468 7.11972 3.20436 6.03004C4.29404 4.94037 5.77146 4.32742 7.3125 4.32568C9.24844 4.32568 10.9434 5.15818 12 6.56537C13.0566 5.15818 14.7516 4.32568 16.6875 4.32568C18.2285 4.32742 19.706 4.94037 20.7956 6.03004C21.8853 7.11972 22.4983 8.59715 22.5 10.1382Z" fill="black"/>
</svg>
