<svg width="18" height="22" viewBox="0 0 18 22" fill="none" xmlns="http://www.w3.org/2000/svg">
<path d="M17.9996 8.75003V13.5247C17.9996 17.856 14.545 21.4513 10.2184 21.4991C9.16832 21.5133 8.12608 21.3165 7.15343 20.9205C6.18077 20.5245 5.29748 19.9374 4.5559 19.1938C2.51121 17.031 0.20121 11.75 0.20121 11.75C0.0996001 11.5742 0.0347623 11.3795 0.0106278 11.1778C-0.0135066 10.9762 0.00356502 10.7717 0.0608077 10.5768C0.11805 10.382 0.214271 10.2008 0.343638 10.0442C0.473004 9.88761 0.63282 9.75893 0.813398 9.66597C1.53152 9.29097 2.41652 9.58722 2.81965 10.2866L4.7884 13.7028C4.84315 13.8012 4.92577 13.8812 5.02585 13.9327C5.12593 13.9843 5.23902 14.0051 5.3509 13.9925H5.36215C5.5423 13.9615 5.70548 13.8673 5.82234 13.7267C5.9392 13.5861 6.00207 13.4084 5.99965 13.2257V2.00003C5.99941 1.79682 6.04047 1.59569 6.12032 1.40883C6.20018 1.22197 6.31717 1.05328 6.4642 0.913008C6.61122 0.772734 6.78521 0.663795 6.97562 0.592804C7.16602 0.521813 7.36886 0.49025 7.57184 0.500029C8.37902 0.537529 8.99965 1.23315 8.99965 2.04034V8.75003C8.99942 8.85285 9.02034 8.95461 9.0611 9.049C9.10186 9.14339 9.16159 9.2284 9.23658 9.29873C9.31158 9.36906 9.40023 9.42323 9.49704 9.45786C9.59385 9.49249 9.69675 9.50684 9.79934 9.50003C9.9922 9.48346 10.1716 9.39449 10.3016 9.251C10.4315 9.10751 10.5023 8.92014 10.4996 8.72659V7.25003C10.4994 7.04682 10.5405 6.84569 10.6203 6.65883C10.7002 6.47197 10.8172 6.30328 10.9642 6.16301C11.1112 6.02273 11.2852 5.9138 11.4756 5.8428C11.666 5.77181 11.8689 5.74025 12.0718 5.75003C12.879 5.78753 13.4996 6.48315 13.4996 7.29034V9.50003C13.4994 9.60285 13.5203 9.70461 13.5611 9.799C13.6019 9.89339 13.6616 9.9784 13.7366 10.0487C13.8116 10.1191 13.9002 10.1732 13.997 10.2079C14.0939 10.2425 14.1967 10.2568 14.2993 10.25C14.4922 10.2335 14.6716 10.1445 14.8016 10.001C14.9315 9.85751 15.0023 9.67014 14.9996 9.47659V8.79409C14.9996 7.9869 15.6203 7.29409 16.4275 7.25378C16.6301 7.24401 16.8326 7.27546 17.0228 7.34623C17.213 7.41699 17.3868 7.52559 17.5337 7.66546C17.6807 7.80534 17.7978 7.97357 17.8779 8.15999C17.9579 8.34641 17.9994 8.54714 17.9996 8.75003Z" fill="#95ACF8"/>
</svg>
