<svg width="45" height="55" viewBox="0 0 45 55" fill="none" xmlns="http://www.w3.org/2000/svg">
<path d="M24.8289 4.78623C28.4557 0.0232205 33.4978 0 33.4978 0C33.4978 0 34.2478 4.47804 30.6448 8.79182C26.7976 13.398 22.4248 12.6443 22.4248 12.6443C22.4248 12.6443 21.6037 9.02168 24.8289 4.78623ZM22.8861 15.7811C24.7519 15.7811 28.2147 13.2256 32.7221 13.2256C40.4808 13.2256 43.5331 18.7265 43.5331 18.7265C43.5331 18.7265 37.5634 21.7677 37.5634 29.1469C37.5634 37.4714 45 40.3402 45 40.3402C45 40.3402 39.8015 54.9192 32.7799 54.9192C29.5549 54.9192 27.0476 52.7537 23.6496 52.7537C20.1867 52.7537 16.7503 55 14.5122 55C8.10037 55.0002 0 41.1705 0 30.0537C0 19.1164 6.85643 13.3788 13.2875 13.3788C17.4683 13.3788 20.7126 15.7811 22.8861 15.7811Z" fill="black"/>
</svg>
