<svg width="45" height="45" viewBox="0 0 45 45" fill="none" xmlns="http://www.w3.org/2000/svg">
<mask id="mask0_233_169" style="mask-type:luminance" maskUnits="userSpaceOnUse" x="0" y="0" width="45" height="45">
<path d="M44.1691 18.4091H23.2031V27.1023H35.2713C34.1463 32.625 29.4418 35.7955 23.2031 35.7955C15.8395 35.7955 9.90767 29.8636 9.90767 22.5C9.90767 15.1364 15.8395 9.20455 23.2031 9.20455C26.3736 9.20455 29.2372 10.3295 31.4872 12.1705L38.0327 5.625C34.044 2.14773 28.9304 0 23.2031 0C10.7259 0 0.703125 10.0227 0.703125 22.5C0.703125 34.9773 10.7259 45 23.2031 45C34.4531 45 44.6804 36.8182 44.6804 22.5C44.6804 21.1705 44.4759 19.7386 44.1691 18.4091Z" fill="white"/>
</mask>
<g mask="url(#mask0_233_169)">
<path d="M-1.3418 35.7955V9.20459L16.0446 22.5001L-1.3418 35.7955Z" fill="#FBBC05"/>
</g>
<mask id="mask1_233_169" style="mask-type:luminance" maskUnits="userSpaceOnUse" x="0" y="0" width="45" height="45">
<path d="M44.1691 18.4091H23.2031V27.1023H35.2713C34.1463 32.625 29.4418 35.7955 23.2031 35.7955C15.8395 35.7955 9.90767 29.8636 9.90767 22.5C9.90767 15.1364 15.8395 9.20455 23.2031 9.20455C26.3736 9.20455 29.2372 10.3295 31.4872 12.1705L38.0327 5.625C34.044 2.14773 28.9304 0 23.2031 0C10.7259 0 0.703125 10.0227 0.703125 22.5C0.703125 34.9773 10.7259 45 23.2031 45C34.4531 45 44.6804 36.8182 44.6804 22.5C44.6804 21.1705 44.4759 19.7386 44.1691 18.4091Z" fill="white"/>
</mask>
<g mask="url(#mask1_233_169)">
<path d="M-1.3418 9.20459L16.0446 22.5001L23.2037 16.2614L47.7491 12.2728V-2.04541H-1.3418V9.20459Z" fill="#EA4335"/>
</g>
<mask id="mask2_233_169" style="mask-type:luminance" maskUnits="userSpaceOnUse" x="0" y="0" width="45" height="45">
<path d="M44.1691 18.4091H23.2031V27.1023H35.2713C34.1463 32.625 29.4418 35.7955 23.2031 35.7955C15.8395 35.7955 9.90767 29.8636 9.90767 22.5C9.90767 15.1364 15.8395 9.20455 23.2031 9.20455C26.3736 9.20455 29.2372 10.3295 31.4872 12.1705L38.0327 5.625C34.044 2.14773 28.9304 0 23.2031 0C10.7259 0 0.703125 10.0227 0.703125 22.5C0.703125 34.9773 10.7259 45 23.2031 45C34.4531 45 44.6804 36.8182 44.6804 22.5C44.6804 21.1705 44.4759 19.7386 44.1691 18.4091Z" fill="white"/>
</mask>
<g mask="url(#mask2_233_169)">
<path d="M-1.3418 35.7955L29.34 12.2728L37.4196 13.2955L47.7491 -2.04541V47.0455H-1.3418V35.7955Z" fill="#34A853"/>
</g>
<mask id="mask3_233_169" style="mask-type:luminance" maskUnits="userSpaceOnUse" x="0" y="0" width="45" height="45">
<path d="M44.1691 18.4091H23.2031V27.1023H35.2713C34.1463 32.625 29.4418 35.7955 23.2031 35.7955C15.8395 35.7955 9.90767 29.8636 9.90767 22.5C9.90767 15.1364 15.8395 9.20455 23.2031 9.20455C26.3736 9.20455 29.2372 10.3295 31.4872 12.1705L38.0327 5.625C34.044 2.14773 28.9304 0 23.2031 0C10.7259 0 0.703125 10.0227 0.703125 22.5C0.703125 34.9773 10.7259 45 23.2031 45C34.4531 45 44.6804 36.8182 44.6804 22.5C44.6804 21.1705 44.4759 19.7386 44.1691 18.4091Z" fill="white"/>
</mask>
<g mask="url(#mask3_233_169)">
<path d="M47.7486 47.0455L16.044 22.5L11.9531 19.4319L47.7486 9.20459V47.0455Z" fill="#4285F4"/>
</g>
</svg>
