<svg width="56" height="56" viewBox="0 0 56 56" fill="none" xmlns="http://www.w3.org/2000/svg">
<path d="M13.6493 39.9C15.6327 38.3834 17.8493 37.1875 20.2993 36.3125C22.7493 35.4375 25.316 35 27.9993 35C30.6827 35 33.2493 35.4375 35.6993 36.3125C38.1493 37.1875 40.366 38.3834 42.3493 39.9C43.7105 38.3056 44.7702 36.4972 45.5285 34.475C46.2868 32.4528 46.666 30.2945 46.666 28C46.666 22.8278 44.848 18.4236 41.2118 14.7875C37.5757 11.1514 33.1716 9.33335 27.9993 9.33335C22.8271 9.33335 18.423 11.1514 14.7868 14.7875C11.1507 18.4236 9.33268 22.8278 9.33268 28C9.33268 30.2945 9.71185 32.4528 10.4702 34.475C11.2285 36.4972 12.2882 38.3056 13.6493 39.9ZM27.9993 30.3334C25.7049 30.3334 23.7702 29.5459 22.1952 27.9709C20.6202 26.3959 19.8327 24.4611 19.8327 22.1667C19.8327 19.8722 20.6202 17.9375 22.1952 16.3625C23.7702 14.7875 25.7049 14 27.9993 14C30.2938 14 32.2285 14.7875 33.8035 16.3625C35.3785 17.9375 36.166 19.8722 36.166 22.1667C36.166 24.4611 35.3785 26.3959 33.8035 27.9709C32.2285 29.5459 30.2938 30.3334 27.9993 30.3334ZM27.9993 51.3334C24.7716 51.3334 21.7382 50.7209 18.8993 49.4958C16.0605 48.2709 13.591 46.6084 11.491 44.5084C9.39102 42.4084 7.72852 39.9389 6.50352 37.1C5.27852 34.2611 4.66602 31.2278 4.66602 28C4.66602 24.7722 5.27852 21.7389 6.50352 18.9C7.72852 16.0611 9.39102 13.5917 11.491 11.4917C13.591 9.39169 16.0605 7.72919 18.8993 6.50419C21.7382 5.27919 24.7716 4.66669 27.9993 4.66669C31.2271 4.66669 34.2605 5.27919 37.0993 6.50419C39.9382 7.72919 42.4077 9.39169 44.5077 11.4917C46.6077 13.5917 48.2702 16.0611 49.4952 18.9C50.7202 21.7389 51.3327 24.7722 51.3327 28C51.3327 31.2278 50.7202 34.2611 49.4952 37.1C48.2702 39.9389 46.6077 42.4084 44.5077 44.5084C42.4077 46.6084 39.9382 48.2709 37.0993 49.4958C34.2605 50.7209 31.2271 51.3334 27.9993 51.3334Z" fill="#1D1B20"/>
</svg>
